<svg width="36" height="36" viewBox="0 0 36 36" fill="none" xmlns="http://www.w3.org/2000/svg">
<rect width="36" height="36" rx="18" fill="white"/>
<path d="M21.176 29L20.936 23.48V17.24C20.936 16.12 20.872 15.112 20.744 14.216C20.616 13.32 20.296 12.616 19.784 12.104C19.272 11.592 18.44 11.336 17.288 11.336C16.488 11.336 15.832 11.528 15.32 11.912C14.808 12.296 14.376 12.744 14.024 13.256L6.488 10.856C7.16 9.544 7.992 8.408 8.984 7.448C10.008 6.488 11.192 5.752 12.536 5.24C13.912 4.696 15.432 4.424 17.096 4.424C19.656 4.424 21.848 4.888 23.672 5.816C25.496 6.744 26.888 8.04 27.848 9.704C28.808 11.368 29.288 13.304 29.288 15.512V29H21.176ZM14.792 29.576C12.008 29.576 9.832 28.952 8.264 27.704C6.728 26.424 5.96 24.6 5.96 22.232C5.96 19.736 6.728 17.896 8.264 16.712C9.832 15.496 12.008 14.888 14.792 14.888H21.848V19.832H18.2C17.08 19.832 16.216 20.024 15.608 20.408C15 20.792 14.696 21.336 14.696 22.04C14.696 22.52 14.904 22.888 15.32 23.144C15.736 23.4 16.312 23.528 17.048 23.528C17.848 23.528 18.536 23.384 19.112 23.096C19.688 22.776 20.136 22.344 20.456 21.8C20.776 21.224 20.936 20.568 20.936 19.832H23.192C23.192 22.936 22.456 25.336 20.984 27.032C19.512 28.728 17.448 29.576 14.792 29.576Z" fill="black"/>
</svg>
